<svg width="213" height="71" viewBox="0 0 213 71" fill="none" xmlns="http://www.w3.org/2000/svg">
<path d="M98.1614 33.3086C102.022 30.1516 108.526 30.1587 113.642 30.7935C115.554 30.8129 117.458 31.15 119.315 31.7978C119.315 31.7978 119.014 31.4565 118.447 30.9374C115.98 28.6719 107.548 24.876 98.906 27.384C92.3831 29.2799 90.3831 32.2464 90.5989 35.2538C89.3214 31.9093 90.073 28.3179 95.8914 25.8324C82.5075 30.3223 90.0018 39.6168 94.927 43.2872C101.443 48.1425 109.155 51.6211 94.0239 59.3032C90.7022 60.996 87.5572 62.3445 84.8266 63.4053C87.9194 62.2669 91.7047 61.1272 95.7519 59.0719C101.418 56.1957 103.88 53.8527 104.403 51.7833C104.674 53.9613 102.597 56.4679 96.0309 59.8012C86.2787 64.7538 78.108 66.7315 78.108 66.7315L78.378 66.723C81.1878 66.6285 105.442 65.4831 110.018 54.1686C114.507 43.0587 90.5808 39.4997 98.1614 33.3086Z" fill="url(#paint0_linear_230_667)"/>
<path d="M8.13477 14.3644C8.16539 14.5066 8.23077 14.6422 8.32692 14.7629C8.42308 14.8836 8.54799 14.9869 8.69408 15.0665C8.84016 15.1461 9.00435 15.2004 9.17667 15.226C9.34898 15.2516 9.52581 15.248 9.6964 15.2155C11.4014 14.9099 15.445 13.1552 14.5446 10.4048C13.0985 5.9917 4.71272 8.80452 1.33847 14.5583C-1.82463 19.9605 0.191153 26.6442 12.0149 26.148C32.858 25.2739 62.6087 -3.63299 72.2653 6.04099C72.2653 6.04099 68.1262 -2.5026 54.7886 0.730821C41.4509 3.96424 15.7477 25.6683 6.03533 21.2157C-1.57365 17.7194 9.95933 9.45515 10.4055 11.1737C10.784 12.5637 7.89972 13.0697 8.13477 14.3644Z" fill="url(#paint1_linear_230_667)"/>
<path d="M40.1164 18.2255C39.3834 18.6242 38.6464 19.0218 37.9054 19.4183C41.8891 32.8909 47.3867 59.284 31.4437 65.143C28.765 66.1714 25.8869 66.8011 22.9424 67.0028C26.1294 67.1901 29.8223 66.6742 34.0133 65.143C50.4423 59.1066 44.1121 31.2643 40.1164 18.2255Z" fill="url(#paint2_linear_230_667)"/>
<path d="M37.9094 19.4183C37.1684 19.8148 36.4261 20.208 35.6824 20.5979C39.6224 34.3729 44.367 59.4516 28.8782 65.143C26.6016 66.0056 24.1867 66.5943 21.7074 66.8911C22.1164 66.9393 22.5334 66.9754 22.9583 66.9995C25.9029 66.7978 28.781 66.1681 31.4597 65.1397C47.4066 59.284 41.8971 32.8909 37.9094 19.4183Z" fill="url(#paint3_linear_230_667)"/>
<path d="M30.5912 61.6105C20.6039 66.7334 14.3176 63.8943 12.7958 63.5525C15.3255 65.3279 18.4068 66.4843 21.6915 66.8911C24.1708 66.5943 26.5857 66.0056 28.8623 65.143C44.3511 59.4516 39.6184 34.3729 35.6665 20.598C34.8698 21.012 34.073 21.4195 33.2962 21.8171C37.1206 33.5875 42.3274 55.5906 30.5912 61.6105Z" fill="url(#paint4_linear_230_667)"/>
<path d="M57.7365 2.30151C62.3099 1.19741 65.7997 1.47344 68.417 2.30151C65.6921 1.07254 61.7721 0.41863 56.3104 1.7396C43.4229 4.86459 19.0104 25.2148 8.61681 22.6024C8.73632 22.6648 8.85583 22.724 8.9873 22.7831C18.6798 27.239 44.3989 5.52507 57.7365 2.30151Z" fill="url(#paint5_linear_230_667)"/>
<path d="M13.5447 27.1666C10.8358 27.2817 8.6407 27.0155 6.90777 26.4766C8.812 27.3769 11.4572 27.8633 14.9749 27.7154C33.9774 26.9169 60.4017 2.79439 72.2254 5.91609C61.2343 0.152446 33.3599 26.3353 13.5447 27.1666Z" fill="url(#paint6_linear_230_667)"/>
<path d="M49.5861 58.1422V40.8459H55.0312V58.1422H49.5861ZM55.0312 48.6399L52.7535 46.8605C53.2043 44.8438 53.9636 43.2778 55.0312 42.1627C56.0989 41.0476 57.5818 40.49 59.4799 40.49C60.3103 40.49 61.0339 40.6205 61.6508 40.8815C62.2914 41.1188 62.849 41.4984 63.3235 42.0204L60.0849 46.1131C59.8476 45.8521 59.5511 45.6505 59.1952 45.5081C58.8393 45.3657 58.4359 45.2946 57.9851 45.2946C57.0835 45.2946 56.3599 45.5793 55.8142 46.1487C55.2922 46.6944 55.0312 47.5248 55.0312 48.6399ZM72.1087 58.2134L64.9909 40.8459H70.8631L75.3829 54.6189H73.212L77.8385 40.8459H83.7107L76.3082 58.2134H72.1087ZM67.6601 65.438L72.8561 54.2274L76.3082 58.2134L73.2476 65.438H67.6601Z" fill="url(#paint7_linear_230_667)"/>
<path d="M117.542 61.8324V37.3827H122.987V61.8324H117.542ZM113.627 49.1627V44.5361H126.902V49.1627H113.627ZM138.313 62.1883C136.724 62.1883 135.3 61.7968 134.043 61.0138C132.809 60.2309 131.824 59.1632 131.089 57.8108C130.377 56.4584 130.021 54.9162 130.021 53.1842C130.021 51.4522 130.377 49.91 131.089 48.5576C131.824 47.2053 132.809 46.1376 134.043 45.3546C135.3 44.5717 136.724 44.1802 138.313 44.1802C139.476 44.1802 140.52 44.4056 141.445 44.8564C142.394 45.3072 143.165 45.9359 143.758 46.7426C144.352 47.5256 144.684 48.4272 144.755 49.4474V56.9211C144.684 57.9413 144.352 58.8547 143.758 59.6614C143.189 60.4444 142.43 61.0613 141.481 61.5121C140.532 61.9629 139.476 62.1883 138.313 62.1883ZM139.417 57.277C140.579 57.277 141.516 56.8974 142.228 56.1381C142.94 55.3552 143.296 54.3705 143.296 53.1842C143.296 52.3775 143.13 51.6658 142.798 51.0489C142.489 50.432 142.038 49.9575 141.445 49.6253C140.876 49.2694 140.211 49.0915 139.452 49.0915C138.693 49.0915 138.017 49.2694 137.424 49.6253C136.854 49.9575 136.392 50.432 136.036 51.0489C135.704 51.6658 135.537 52.3775 135.537 53.1842C135.537 53.9672 135.704 54.6671 136.036 55.284C136.368 55.9009 136.83 56.3872 137.424 56.7431C138.017 57.099 138.681 57.277 139.417 57.277ZM143.082 61.8324V57.1702L143.901 52.9707L143.082 48.7712V44.5361H148.421V61.8324H143.082ZM165.458 61.8324L159.408 52.8639L165.422 44.5361H171.508L164.248 53.896L164.426 51.6539L171.864 61.8324H165.458ZM154.39 61.8324V35.9947H159.835V61.8324H154.39ZM183.73 62.2238C181.856 62.2238 180.183 61.8442 178.712 61.085C177.265 60.302 176.126 59.2225 175.295 57.8464C174.465 56.4703 174.05 54.9162 174.05 53.1842C174.05 51.4522 174.453 49.91 175.26 48.5576C176.09 47.1815 177.205 46.102 178.605 45.319C180.005 44.5361 181.583 44.1446 183.339 44.1446C185.047 44.1446 186.553 44.5124 187.858 45.2479C189.163 45.9834 190.183 47.0036 190.919 48.3085C191.678 49.6135 192.058 51.1082 192.058 52.7927C192.058 53.1012 192.034 53.4333 191.987 53.7892C191.963 54.1214 191.904 54.5129 191.809 54.9637L176.897 54.9993V51.2624L189.495 51.2268L187.147 52.7927C187.123 51.7963 186.969 50.9777 186.684 50.3371C186.399 49.6728 185.972 49.1745 185.403 48.8424C184.857 48.4865 184.181 48.3085 183.374 48.3085C182.52 48.3085 181.773 48.5102 181.132 48.9135C180.515 49.2932 180.029 49.8389 179.673 50.5506C179.341 51.2624 179.175 52.1284 179.175 53.1486C179.175 54.1689 179.353 55.0467 179.708 55.7822C180.088 56.494 180.61 57.0516 181.274 57.4549C181.962 57.8345 182.769 58.0243 183.694 58.0243C184.549 58.0243 185.32 57.882 186.008 57.5973C186.696 57.2888 187.301 56.838 187.823 56.2449L190.812 59.2344C189.958 60.2309 188.926 60.9782 187.716 61.4765C186.506 61.9747 185.177 62.2238 183.73 62.2238ZM203.121 62.2594C202.101 62.2594 201.092 62.1289 200.096 61.868C199.123 61.607 198.209 61.2392 197.355 60.7647C196.525 60.2664 195.813 59.697 195.22 59.0564L198.316 55.9246C198.886 56.5415 199.562 57.0278 200.345 57.3837C201.128 57.7159 201.982 57.882 202.907 57.882C203.548 57.882 204.034 57.7871 204.366 57.5973C204.722 57.4075 204.9 57.1465 204.9 56.8143C204.9 56.3872 204.687 56.0669 204.26 55.8534C203.856 55.6161 203.334 55.4145 202.694 55.2484C202.053 55.0586 201.377 54.8569 200.665 54.6434C199.953 54.4298 199.277 54.1333 198.637 53.7537C197.996 53.374 197.474 52.8521 197.071 52.1877C196.667 51.4997 196.466 50.6337 196.466 49.5897C196.466 48.4746 196.75 47.5137 197.32 46.707C197.889 45.8766 198.696 45.2241 199.74 44.7496C200.784 44.2751 202.006 44.0378 203.405 44.0378C204.876 44.0378 206.229 44.2988 207.463 44.8208C208.72 45.319 209.74 46.0664 210.523 47.0629L207.427 50.1947C206.881 49.5541 206.264 49.1033 205.576 48.8424C204.912 48.5814 204.26 48.4509 203.619 48.4509C203.002 48.4509 202.539 48.5458 202.231 48.7356C201.923 48.9017 201.768 49.1508 201.768 49.483C201.768 49.8389 201.97 50.1236 202.373 50.3371C202.777 50.5506 203.299 50.7404 203.939 50.9065C204.58 51.0726 205.256 51.2743 205.968 51.5115C206.68 51.7488 207.356 52.0691 207.996 52.4724C208.637 52.8758 209.159 53.4215 209.562 54.1095C209.966 54.7739 210.167 55.6517 210.167 56.7431C210.167 58.4277 209.527 59.7682 208.246 60.7647C206.988 61.7612 205.28 62.2594 203.121 62.2594Z" fill="url(#paint8_linear_230_667)"/>
<defs>
<linearGradient id="paint0_linear_230_667" x1="107.662" y1="25.8324" x2="88.9298" y2="42.0973" gradientUnits="userSpaceOnUse">
<stop stop-color="#000F93"/>
<stop offset="1" stop-color="#7000FF"/>
</linearGradient>
<linearGradient id="paint1_linear_230_667" x1="71.7025" y1="-3.20527" x2="65.2305" y2="31.7929" gradientUnits="userSpaceOnUse">
<stop stop-color="#000F93"/>
<stop offset="1" stop-color="#7000FF"/>
</linearGradient>
<linearGradient id="paint2_linear_230_667" x1="44.5547" y1="12.2477" x2="11.1072" y2="41.48" gradientUnits="userSpaceOnUse">
<stop stop-color="#000F93"/>
<stop offset="1" stop-color="#7000FF"/>
</linearGradient>
<linearGradient id="paint3_linear_230_667" x1="42.0049" y1="13.5915" x2="9.586" y2="40.8906" gradientUnits="userSpaceOnUse">
<stop stop-color="#000F93"/>
<stop offset="1" stop-color="#7000FF"/>
</linearGradient>
<linearGradient id="paint4_linear_230_667" x1="39.3672" y1="14.9289" x2="7.60691" y2="50.9144" gradientUnits="userSpaceOnUse">
<stop stop-color="#000F93"/>
<stop offset="1" stop-color="#7000FF"/>
</linearGradient>
<linearGradient id="paint5_linear_230_667" x1="67.9513" y1="-1.72741" x2="62.2504" y2="28.1197" gradientUnits="userSpaceOnUse">
<stop stop-color="#000F93"/>
<stop offset="1" stop-color="#7000FF"/>
</linearGradient>
<linearGradient id="paint6_linear_230_667" x1="71.7168" y1="2.31386" x2="66.3382" y2="32.6881" gradientUnits="userSpaceOnUse">
<stop stop-color="#000F93"/>
<stop offset="1" stop-color="#7000FF"/>
</linearGradient>
<linearGradient id="paint7_linear_230_667" x1="56.0053" y1="10.7871" x2="93.313" y2="22.7304" gradientUnits="userSpaceOnUse">
<stop offset="0.348958" stop-color="#3A07CB"/>
<stop offset="1" stop-color="#7000FF"/>
</linearGradient>
<linearGradient id="paint8_linear_230_667" x1="135.482" y1="14.4772" x2="198.961" y2="68.851" gradientUnits="userSpaceOnUse">
<stop offset="0.348958" stop-color="#3A07CB"/>
<stop offset="1" stop-color="#7000FF"/>
</linearGradient>
</defs>
</svg>
